# Blender v2.93.0 OBJ File: ''
# www.blender.org
mtllib arrow6.mtl
o XYZ_Function.002
v 0.100000 0.000000 0.000000
v 0.090097 0.000000 0.043388
v 0.062349 0.000000 0.078183
v 0.022252 0.000000 0.097493
v -0.022252 0.000000 0.097493
v -0.062349 0.000000 0.078183
v -0.090097 0.000000 0.043388
v -0.100000 0.000000 -0.000000
v -0.090097 0.000000 -0.043388
v -0.062349 0.000000 -0.078183
v -0.022252 0.000000 -0.097493
v 0.022252 0.000000 -0.097493
v 0.062349 0.000000 -0.078183
v 0.090097 0.000000 -0.043388
v -0.022252 0.005 -0.097493
v -0.090097 0.005 0.043388
v -0.062349 0.005 -0.078183
v 0.090097 0.005 0.043388
v 0.090097 0.005 -0.043388
v 0.022252 0.005 -0.097493
v 0.022252 0.005 0.097493
v -0.062349 0.005 0.078183
v 0.062349 0.005 -0.078183
v -0.100000 0.005 -0.000000
v -0.090097 0.005 -0.043388
v 0.062349 0.005 0.078183
v 0.100000 0.005 0.000000
v -0.022252 0.005 0.097493
v 0.300007 0.01 -0.000030
v 0.270286 0.01 0.130183
v 0.186976 0.010002 0.234659
v 0.066669 0.010004 0.292561
v -0.066951 0.010025 0.292572
v -0.187213 0.010018 0.234624
v -0.270640 0.010076 0.129962
v -0.300106 0.010005 -0.000028
v -0.270291 0.01 -0.130165
v -0.187047 0.01 -0.234549
v -0.066756 0.01 -0.292478
v 0.066647 0.010016 -0.292626
v 0.186991 0.010007 -0.234704
v 0.270282 0.010003 -0.130269
v -0.000023 0.309932 -0.000047
v 0.000220 0.309766 0.000060
v 0.000000 0.31 0.000000
v 0.000000 0.31 0.000000
v 0.000000 0.31 0.000000
v 0.000000 0.31 0.000000
v 0.000000 0.31 0.000000
v 0.000000 0.31 0.000000
v 0.000000 0.31 0.000000
v 0.000000 0.31 0.000000
v 0.000000 0.31 0.000000
v 0.000000 0.31 0.000000
v 0.000000 0.31 0.000000
v 0.000000 0.31 0.000000
v 0.000000 0.31 0.000000
vn 0.7818 -0.0000 0.6235
vn 0.4339 -0.0000 0.9010
vn 0.4339 -0.0000 -0.9010
vn 0.0000 0.0000 -1.0000
vn -0.4339 0.0000 0.9010
vn -0.9749 0.0000 -0.2225
vn 0.7818 0.0000 -0.6235
vn -0.7818 0.0000 0.6235
vn 0.9749 0.0000 0.2225
vn -0.7818 0.0000 -0.6235
vn 0.0000 0.0000 1.0000
vn -0.4339 -0.0000 -0.9010
vn -0.9749 -0.0000 0.2225
vn 0.5598 -0.6981 0.4464
vn -0.0250 0.9997 -0.0057
vn 0.6978 -0.6982 0.1599
vn -0.5598 -0.6981 -0.4464
vn -0.3105 -0.6982 -0.6450
vn -0.6262 -0.6113 0.4839
vn 0.0000 1.0000 0.0000
vn 0.3107 -0.6981 0.6451
vn 0.0009 -0.6982 0.7159
vn -0.6981 -0.6981 -0.1593
vn 0.6976 -0.6989 -0.1578
vn -0.0002 -0.6984 -0.7157
vn 0.3106 -0.6986 -0.6446
vn 0.5592 -0.6988 -0.4461
vn 0.2436 -0.2438 -0.9387
vn -0.3104 -0.6984 0.6448
vn -0.5597 -0.6983 0.4463
vn -0.6980 -0.6981 0.1593
vn -0.0200 0.9997 -0.0160
vn -0.0111 0.9997 -0.0231
vn 0.0001 0.9997 -0.0257
vn 0.0111 0.9997 -0.0232
vn 0.0204 0.9997 -0.0159
vn 0.0251 0.9997 -0.0061
vn 0.0250 0.9997 0.0057
vn 0.0200 0.9997 0.0160
vn 0.0111 0.9997 0.0231
vn -0.0001 0.9997 0.0257
vn -0.0111 0.9997 0.0232
vn -0.0200 0.9997 0.0160
vn -0.0250 0.9997 0.0057
vn 0.9749 -0.0000 -0.2225
usemtl None
s off
f 25//1 9//1 10//1 17//1
f 17//2 10//2 11//2 15//2
f 28//3 5//3 6//3 22//3
f 21//4 4//4 5//4 28//4
f 20//5 12//5 13//5 23//5
f 27//6 1//6 2//6 18//6
f 22//7 6//7 7//7 16//7
f 23//8 13//8 14//8 19//8
f 24//9 8//9 9//9 25//9
f 18//10 2//10 3//10 26//10
f 15//11 11//11 12//11 20//11
f 26//12 3//12 4//12 21//12
f 19//13 14//13 1//13 27//13
f 37//14 38//14 43//14
f 29//15 27//15 18//15 30//15
f 43//16 36//16 37//16
f 44//17 30//17 31//17
f 44//18 31//18 32//18
f 44//19 43//19 40//19
f 14//20 13//20 12//20
f 45//11 46//11 47//11
f 14//20 12//20 11//20
f 45//11 47//11 48//11
f 14//20 11//20 10//20
f 45//11 48//11 49//11
f 14//20 10//20 9//20
f 45//11 49//11 50//11
f 14//20 9//20 8//20
f 45//11 50//11 51//11
f 14//20 8//20 7//20
f 45//11 51//11 52//11
f 14//20 7//20 6//20
f 45//11 52//11 53//11
f 14//20 6//20 5//20
f 45//11 53//11 54//11
f 14//20 5//20 4//20
f 45//11 54//11 55//11
f 14//20 4//20 3//20
f 45//11 55//11 56//11
f 14//20 3//20 2//20
f 45//11 56//11 57//11
f 14//20 2//20 1//20
f 45//11 57//11 44//11
f 39//21 43//21 38//21
f 43//22 39//22 40//22
f 29//23 30//23 44//23
f 36//24 44//24 35//24
f 44//25 32//25 33//25
f 44//26 33//26 34//26
f 44//27 34//27 35//27
f 36//28 43//28 44//28
f 44//29 40//29 41//29
f 44//30 41//30 42//30
f 44//31 42//31 29//31
f 46//11 45//11 44//11
f 47//11 46//11 44//11
f 48//11 47//11 44//11
f 49//11 48//11 44//11
f 50//11 49//11 44//11
f 51//11 50//11 44//11
f 52//11 51//11 44//11
f 53//11 52//11 44//11
f 54//11 53//11 44//11
f 55//11 54//11 44//11
f 56//11 55//11 44//11
f 57//11 56//11 44//11
f 18//32 26//32 31//32 30//32
f 32//33 31//33 26//33 21//33
f 32//34 21//34 28//34 33//34
f 28//35 22//35 34//35 33//35
f 34//36 22//36 16//36 35//36
f 16//37 24//37 36//37 35//37
f 36//38 24//38 25//38 37//38
f 37//39 25//39 17//39 38//39
f 38//40 17//40 15//40 39//40
f 15//41 20//41 40//41 39//41
f 20//42 23//42 41//42 40//42
f 41//43 23//43 19//43 42//43
f 19//44 27//44 29//44 42//44
f 16//45 7//45 8//45 24//45
